<svg xmlns="http://www.w3.org/2000/svg" version="1.1" xmlns:xlink="http://www.w3.org/1999/xlink" width="32" height="32"><svg width="32" height="32" viewBox="0 0 8.467 8.467" xmlns="http://www.w3.org/2000/svg">
    <g style="display:inline">
        <path style="font-variation-settings:'opsz' 32,'wght' 700;fill-opacity:1;stroke:none;stroke-width:1.29251;stroke-linecap:butt;stroke-linejoin:bevel;stroke-dasharray:none;stroke-opacity:1" d="m2.88.404-.754 3.342a.106.106 51.361 0 0 .104.13h.673a.166.166 141.365 0 0 .162-.13l.271-1.202a.028.028.844 0 1 .055.001l.234 1.2a.16.16 39.479 0 0 .157.13h.753a.25.25 152.08 0 0 .206-.11l.74-1.09a.025.025 23.446 0 1 .045.02l-.562 2.49-2.344.53.283-1.253a.106.106 51.366 0 0-.103-.13h-.674a.166.166 141.367 0 0-.161.13l-.814 3.6a.106.106 51.367 0 0 .103.13h.674a.166.166 141.367 0 0 .161-.13l.278-1.23a.21.21 135.001 0 1 .158-.158l2.216-.5-.427 1.888a.106.106 51.363 0 0 .103.13h.674a.165.165 141.362 0 0 .161-.13L5.73 5.95l1.162-.262a.165.165 128.637 0 0 .129-.161v-.675a.106.106 38.631 0 0-.13-.103l-.937.212L6.983.404a.106.106 51.366 0 0-.104-.129h-.743a.25.25 152.078 0 0-.206.11l-1.5 2.212a.055.055 11.547 0 1-.1-.02L3.904.404a.16.16 39.468 0 0-.158-.13h-.705a.165.165 141.361 0 0-.161.13Z"></path>
    </g>
</svg><style>@media (prefers-color-scheme: light) { :root { fill: black; } }
@media (prefers-color-scheme: dark) { :root { fill: white; } }
</style></svg>